<?xml version="1.0" encoding="utf-8"?>
<svg width="128" height="128" viewBox="0 0 33.866666 33.866668" version="1.1" id="svg829" xmlns="http://www.w3.org/2000/svg">
  <g id="layer1">
    <path d="m 9.8349647,10.333203 c -0.172607,-0.02004 -0.347792,0.109293 -0.347792,0.310819 v 2.448744 c 0,0.0916 0.04277,0.183224 0.11605,0.238185 l 3.6215333,3.039371 0.671494,0.563554 -4.2930273,3.602925 c -0.07328,0.06107 -0.11605,0.146585 -0.11605,0.238183 v 2.448745 c 0,0.262585 0.311463,0.40917 0.5129833,0.238183 l 7.505102,-6.289853 c 0.152668,-0.122139 0.152668,-0.354234 0,-0.476367 l -7.505102,-6.289854 c -0.05038,-0.04274 -0.1076533,-0.06596 -0.1651913,-0.07264 z m 8.0793923,10.704296 c -0.158773,0 -0.293049,0.140542 -0.293049,0.311535 v 1.874695 c 0,0.170986 0.134271,0.311415 0.293049,0.311415 h 7.230303 c 0.158773,0 0.293167,-0.140435 0.293167,-0.311415 v -1.874695 c 0,-0.170987 -0.134392,-0.311535 -0.293167,-0.311535 z" style="fill:#ffffff;stroke:none;stroke-width:0.587399" id="path1625"/>
  </g>
</svg>